TITLE ""
FILE "Step2_Track53.mp3" MP3
  TRACK 01 AUDIO
    TITLE "Step2_Track53_01"
    INDEX 01 00:00:00
  TRACK 02 AUDIO
    TITLE "Step2_Track53_02"
    INDEX 01 00:00:22
  TRACK 03 AUDIO
    TITLE "Step2_Track53_03"
    INDEX 01 00:02:05
  TRACK 04 AUDIO
    TITLE "Step2_Track53_04"
    INDEX 01 00:02:66
  TRACK 05 AUDIO
    TITLE "Step2_Track53_05"
    INDEX 01 00:03:60
  TRACK 06 AUDIO
    TITLE "Step2_Track53_06"
    INDEX 01 00:03:69
  TRACK 07 AUDIO
    TITLE "Step2_Track53_07"
    INDEX 01 00:06:21
  TRACK 08 AUDIO
    TITLE "Step2_Track53_08"
    INDEX 01 00:06:48
  TRACK 09 AUDIO
    TITLE "Step2_Track53_09"
    INDEX 01 00:07:48
  TRACK 10 AUDIO
    TITLE "Step2_Track53_10"
    INDEX 01 00:07:50
  TRACK 11 AUDIO
    TITLE "Step2_Track53_11"
    INDEX 01 00:10:28
  TRACK 12 AUDIO
    TITLE "Step2_Track53_12"
    INDEX 01 00:10:58
  TRACK 13 AUDIO
    TITLE "Step2_Track53_13"
    INDEX 01 00:11:61
  TRACK 14 AUDIO
    TITLE "Step2_Track53_14"
    INDEX 01 00:11:63
  TRACK 15 AUDIO
    TITLE "Step2_Track53_15"
    INDEX 01 00:14:40
  TRACK 16 AUDIO
    TITLE "Step2_Track53_16"
    INDEX 01 00:14:69
  TRACK 17 AUDIO
    TITLE "Step2_Track53_17"
    INDEX 01 00:15:71
  TRACK 18 AUDIO
    TITLE "Step2_Track53_18"
    INDEX 01 00:16:09
  TRACK 19 AUDIO
    TITLE "Step2_Track53_19"
    INDEX 01 00:18:67
  TRACK 20 AUDIO
    TITLE "Step2_Track53_20"
    INDEX 01 00:19:19
  TRACK 21 AUDIO
    TITLE "Step2_Track53_21"
    INDEX 01 00:20:23
  TRACK 22 AUDIO
    TITLE "Step2_Track53_22"
    INDEX 01 00:20:29
  TRACK 23 AUDIO
    TITLE "Step2_Track53_23"
    INDEX 01 00:23:07
  TRACK 24 AUDIO
    TITLE "Step2_Track53_24"
    INDEX 01 00:23:31
  TRACK 25 AUDIO
    TITLE "Step2_Track53_25"
    INDEX 01 00:24:38
  TRACK 26 AUDIO
    TITLE "Step2_Track53_26"
    INDEX 01 00:24:50
  TRACK 27 AUDIO
    TITLE "Step2_Track53_27"
    INDEX 01 00:27:70
  TRACK 28 AUDIO
    TITLE "Step2_Track53_28"
    INDEX 01 00:28:22
  TRACK 29 AUDIO
    TITLE "Step2_Track53_29"
    INDEX 01 00:29:26
  TRACK 30 AUDIO
    TITLE "Step2_Track53_30"
    INDEX 01 00:29:34
  TRACK 31 AUDIO
    TITLE "Step2_Track53_31"
    INDEX 01 00:32:02
  TRACK 32 AUDIO
    TITLE "Step2_Track53_32"
    INDEX 01 00:32:32
  TRACK 33 AUDIO
    TITLE "Step2_Track53_33"
    INDEX 01 00:33:22
  TRACK 34 AUDIO
    TITLE "Step2_Track53_34"
    INDEX 01 00:33:29
  TRACK 35 AUDIO
    TITLE "Step2_Track53_35"
    INDEX 01 00:35:65
  TRACK 36 AUDIO
    TITLE "Step2_Track53_36"
    INDEX 01 00:36:24
  TRACK 37 AUDIO
    TITLE "Step2_Track53_37"
    INDEX 01 00:37:23
  TRACK 38 AUDIO
    TITLE "Step2_Track53_38"
    INDEX 01 00:37:29
  TRACK 39 AUDIO
    TITLE "Step2_Track53_39"
    INDEX 01 00:40:24
  TRACK 40 AUDIO
    TITLE "Step2_Track53_40"
    INDEX 01 00:40:53
  TRACK 41 AUDIO
    TITLE "Step2_Track53_41"
    INDEX 01 00:41:50
  TRACK 42 AUDIO
    TITLE "Step2_Track53_42"
    INDEX 01 00:41:56
  TRACK 43 AUDIO
    TITLE "Step2_Track53_43"
    INDEX 01 00:44:35
